<svg xmlns="http://www.w3.org/2000/svg" xmlns:xlink="http://www.w3.org/1999/xlink" version="1.1" viewBox="0 0 890 1411" style="background: #ffffff"><defs><style>@import url(https://fonts.googleapis.com/css?family=Open+Sans:400,700);</style></defs><defs joint-selector="defs"></defs><g joint-selector="layers"  transform="matrix(1,0,0,1,0,0)"><g ></g><g ><!--z-index:0--><!--z-index:1--><!--z-index:2--><!--z-index:3--><!--z-index:4--><!--z-index:5--><!--z-index:6--><!--z-index:7--><!--z-index:8--><g   id="j_3"  transform="translate(20,1374.6)"><g id="v-7"><text  id="v-8" font-size="22px" xml:space="preserve" y="0.8em" font-weight="normal" text-anchor="start" fill="#aaaaaa" pointer-events="none" display="block" font-family="Open Sans"><tspan dy="0"  display="none">Wednesday, June 26, 2024 at 3:06 AM Eastern European Summer Time</tspan></text></g></g><!--z-index:9--><g   id="j_2"  transform="translate(20,1348.1999999999998)"><g id="v-5"><text  id="v-6" font-size="22px" xml:space="preserve" y="0.8em" font-weight="normal" text-anchor="start" fill="#aaaaaa" pointer-events="none" display="block" font-family="Open Sans"><tspan dy="0"  display="none">Client Server</tspan></text></g></g><!--z-index:10--><g   id="j_1"  transform="translate(20,1304.9999999999998)"><g id="v-3"><text  id="v-4" font-size="36px" xml:space="preserve" y="0.8em" font-weight="normal" text-anchor="start" fill="#000000" pointer-events="none" display="block" font-family="Open Sans"><tspan dy="0"  display="none">[Container] Distributed System</tspan></text></g></g><!--z-index:11--><g   id="j_5"  transform="translate(200,200)" style=""><g id="v-21"><rect  id="v-22" width="490" height="1011" rx="0" ry="0" fill="#ffffff" stroke="#c7c7c7" stroke-width="1" stroke-dasharray="20,20" pointer-events="none"></rect><text  id="v-23" font-size="24px" xml:space="preserve" y="972" font-weight="normal" fill="#c7c7c7" text-anchor="start" pointer-events="visible" font-family="Open Sans" transform="matrix(1,0,0,1,15,0)"><tspan dy="0" >Distributed System</tspan></text><text  id="v-24" font-size="17px" xml:space="preserve" y="996" font-weight="normal" fill="#c7c7c7" text-anchor="start" pointer-events="visible" font-family="Open Sans" transform="matrix(1,0,0,1,15,0)"><tspan dy="0" >[Software System]</tspan></text><image  id="v-25" pointer-events="visible"></image></g></g><!--z-index:12--><g   id="j_4"  transform="translate(220,220)" style=""><g  id="v-9" style="opacity: 1;"><rect  id="v-10" rx="10" ry="10" stroke="#e69500" stroke-width="2" pointer-events="visiblePainted" fill="#e69500" width="450" height="300" style="fill: rgb(230, 149, 0); stroke: rgb(230, 149, 0);"></rect><rect  id="v-11" rx="10" ry="10" stroke="#e69500" stroke-width="0" pointer-events="visiblePainted" fill="#ffa500" width="430" height="250" x="10" y="40" style="fill: rgb(255, 165, 0);"></rect><ellipse  id="v-18" fill="#ffa500" cx="20" cy="20" rx="10" ry="10" style="fill: rgb(255, 165, 0);"></ellipse><ellipse  id="v-19" fill="#ffa500" cx="50" cy="20" rx="10" ry="10" style="fill: rgb(255, 165, 0);"></ellipse><ellipse  id="v-20" fill="#ffa500" cx="80" cy="20" rx="10" ry="10" style="fill: rgb(255, 165, 0);"></ellipse><rect  id="v-12" rx="10" ry="10" stroke="#444444" stroke-width="0" pointer-events="visiblePainted" fill="#ffa500" width="340" height="20" x="100" y="10" style="fill: rgb(255, 165, 0);"></rect><text  id="v-13" font-size="34" xml:space="preserve" y="0.8em" font-weight="bold" text-anchor="middle" pointer-events="visible" font-family="Open Sans" fill="#000000" transform="matrix(1,0,0,1,225,117.5)" style="fill: rgb(0, 0, 0);"><tspan dy="0" >Client,</tspan></text><text  id="v-14" font-size="17" xml:space="preserve" y="0.8em" text-anchor="middle" font-family="Open Sans" fill="#000000" transform="matrix(1,0,0,1,225,158.3)" style="fill: rgb(0, 0, 0);"><tspan dy="0" >[Container: ,]</tspan></text><text  id="v-15" font-size="24" xml:space="preserve" y="0.8em" text-anchor="middle" font-family="Open Sans" fill="#000000" transform="matrix(1,0,0,1,225,188.7)" style="fill: rgb(0, 0, 0);"><tspan dy="0" >,</tspan></text><g  id="v-16" font-weight="normal" text-anchor="middle" color="#000000" transform="matrix(1,0,0,1,222.5,258)" display="none" style="fill: rgb(0, 0, 0);"><g ></g><g ></g><g ></g><g ></g></g><image  id="v-17"></image></g></g><!--z-index:13--><g   id="j_6"  transform="translate(220,820)" style=""><g  id="v-26" style="opacity: 1;"><rect  id="v-27" rx="1" ry="1" stroke="#0051e6" stroke-width="2" pointer-events="visiblePainted" fill="#005aff" width="450" height="300" style="fill: rgb(0, 90, 255); stroke: rgb(0, 81, 230);"></rect><text  id="v-28" font-size="34" xml:space="preserve" y="0.8em" font-weight="bold" text-anchor="middle" pointer-events="visible" font-family="Open Sans" fill="#000000" transform="matrix(1,0,0,1,225,102.5)" style="fill: rgb(0, 0, 0);"><tspan dy="0" >Server,</tspan></text><text  id="v-29" font-size="17" xml:space="preserve" y="0.8em" text-anchor="middle" font-family="Open Sans" fill="#000000" transform="matrix(1,0,0,1,225,143.3)" style="fill: rgb(0, 0, 0);"><tspan dy="0" >[Container: ,]</tspan></text><text  id="v-30" font-size="24" xml:space="preserve" y="0.8em" text-anchor="middle" font-family="Open Sans" fill="#000000" transform="matrix(1,0,0,1,225,173.7)" style="fill: rgb(0, 0, 0);"><tspan dy="0" >,</tspan></text><g  id="v-31" color="#000000" transform="matrix(1,0,0,1,222.5,268)" display="none" style="fill: rgb(0, 0, 0);"><g ></g><g ></g><g ></g><g ></g></g><image  id="v-32"></image></g></g><!--z-index:14--><g   id="j_7" ><path  stroke="#707070" d="M 445 520 L 445 820" id="v-42" stroke-width="2" stroke-dasharray="30 30" fill="none" style="opacity: 1;"></path><path  fill="black" stroke="black" d="M 0 0 0 0" transform="matrix(6.123233995736766e-17,1,-1,6.123233995736766e-17,445,520)"></path><path  fill="#707070" stroke="#707070" d="M 20 0 L 0 10 L 20 20 z" id="v-44" transform="matrix(-1.8369701987210297e-16,-1,1,-1.8369701987210297e-16,435,819.9999999999998)" style="opacity: 1;"></path><path  d="M 445 520 L 445 820" id="v-43" fill="none" style="cursor: auto; pointer-events: visiblepainted;"></path><g ><g id="v-36"  label-idx="0" cursor="move" transform="matrix(1,0,0,1,445,670)" style="cursor: default; opacity: 1;"><rect joint-selector="rect" id="v-39" fill="#ffffff" rx="3" ry="3" pointer-events="none" width="0" height="0" transform="matrix(1,0,0,1,0,0)"></rect><text joint-selector="text" id="v-38" font-size="24px" xml:space="preserve" display="none" y="0.8em" fill="#707070" text-anchor="middle" pointer-events="none" font-family="Open Sans" font-weight="normal"><tspan dy="0" style="fill-opacity: 0; stroke-opacity: 0;" >-</tspan></text></g><g id="v-37"  label-idx="1" cursor="move" transform="matrix(1,0,0,1,435,682)" style="cursor: default; opacity: 1;"><rect joint-selector="rect" id="v-41" fill="#ffffff" rx="3" ry="3"  width="0" height="0" transform="matrix(1,0,0,1,0,0)" display="none"></rect><text joint-selector="text" id="v-40" fill="#000000" font-size="14" text-anchor="middle" pointer-events="none"></text></g></g><g  display="none" style="display: none;"></g><g  id="v-46" display="none"><g  id="v-34"><path  end="source" d="M 26 0 L 0 13 L 26 26 z"></path></g><g  id="v-35"><path  end="target" d="M 26 0 L 0 13 L 26 26 z"></path></g></g><g  id="v-45" display="none"><g  id="v-33" transform="translate(445, 560) "><g  event="remove"><circle r="11"></circle><path transform="scale(.8) translate(-16, -16)" d="M24.778,21.419 19.276,15.917 24.777,10.415 21.949,7.585 16.447,13.087 10.945,7.585 8.117,10.415 13.618,15.917 8.116,21.419 10.946,24.248 16.447,18.746 21.948,24.248z"></path><title>Remove link.</title></g><g  event="link:options"><circle r="11" transform="translate(25)"></circle><path fill="white" transform="scale(.55) translate(29, -16)" d="M31.229,17.736c0.064-0.571,0.104-1.148,0.104-1.736s-0.04-1.166-0.104-1.737l-4.377-1.557c-0.218-0.716-0.504-1.401-0.851-2.05l1.993-4.192c-0.725-0.91-1.549-1.734-2.458-2.459l-4.193,1.994c-0.647-0.347-1.334-0.632-2.049-0.849l-1.558-4.378C17.165,0.708,16.588,0.667,16,0.667s-1.166,0.041-1.737,0.105L12.707,5.15c-0.716,0.217-1.401,0.502-2.05,0.849L6.464,4.005C5.554,4.73,4.73,5.554,4.005,6.464l1.994,4.192c-0.347,0.648-0.632,1.334-0.849,2.05l-4.378,1.557C0.708,14.834,0.667,15.412,0.667,16s0.041,1.165,0.105,1.736l4.378,1.558c0.217,0.715,0.502,1.401,0.849,2.049l-1.994,4.193c0.725,0.909,1.549,1.733,2.459,2.458l4.192-1.993c0.648,0.347,1.334,0.633,2.05,0.851l1.557,4.377c0.571,0.064,1.148,0.104,1.737,0.104c0.588,0,1.165-0.04,1.736-0.104l1.558-4.377c0.715-0.218,1.399-0.504,2.049-0.851l4.193,1.993c0.909-0.725,1.733-1.549,2.458-2.458l-1.993-4.193c0.347-0.647,0.633-1.334,0.851-2.049L31.229,17.736zM16,20.871c-2.69,0-4.872-2.182-4.872-4.871c0-2.69,2.182-4.872,4.872-4.872c2.689,0,4.871,2.182,4.871,4.872C20.871,18.689,18.689,20.871,16,20.871z"></path><title>Link options.</title></g></g></g></g><!--z-index:15--></g><g ></g><g ></g><g ></g></g></svg>