<svg xmlns="http://www.w3.org/2000/svg" xmlns:xlink="http://www.w3.org/1999/xlink" version="1.1" viewBox="0 0 1940 1164" style="background: #ffffff"><defs><style>@import url(https://fonts.googleapis.com/css?family=Open+Sans:400,700);</style></defs><defs joint-selector="defs"></defs><g joint-selector="layers"  transform="matrix(1,0,0,1,0,0)"><g ></g><g ><!--z-index:0--><!--z-index:1--><!--z-index:2--><!--z-index:3--><!--z-index:4--><!--z-index:5--><!--z-index:6--><!--z-index:7--><!--z-index:8--><!--z-index:9--><!--z-index:10--><!--z-index:11--><!--z-index:12--><!--z-index:13--><g   id="j_28"  transform="translate(20,1127.6)"><g id="v-183"><text  id="v-184" font-size="22px" xml:space="preserve" y="0.8em" font-weight="normal" text-anchor="start" fill="#aaaaaa" pointer-events="none" display="block" font-family="Open Sans"><tspan dy="0"  display="none">Wednesday, June 26, 2024 at 12:14 PM Eastern European Summer Time</tspan></text></g></g><!--z-index:14--><g   id="j_27"  transform="translate(20,1101.1999999999998)"><g id="v-181"><text  id="v-182" font-size="22px" xml:space="preserve" y="0.8em" font-weight="normal" text-anchor="start" fill="#aaaaaa" pointer-events="none" display="block" font-family="Open Sans"><tspan dy="0"  display="none">P2P</tspan></text></g></g><!--z-index:15--><g   id="j_26"  transform="translate(20,1057.9999999999998)"><g id="v-179"><text  id="v-180" font-size="36px" xml:space="preserve" y="0.8em" font-weight="normal" text-anchor="start" fill="#000000" pointer-events="none" display="block" font-family="Open Sans"><tspan dy="0"  display="none">[Container] Distributed System</tspan></text></g></g><!--z-index:16--><g   id="j_30"  transform="translate(199,253)" style=""><g id="v-192"><rect  id="v-193" width="1540" height="711" rx="0" ry="0" fill="#ffffff" stroke="#c7c7c7" stroke-width="1" stroke-dasharray="20,20" pointer-events="none"></rect><text  id="v-194" font-size="24px" xml:space="preserve" y="672" font-weight="normal" fill="#c7c7c7" text-anchor="start" pointer-events="visible" font-family="Open Sans" transform="matrix(1,0,0,1,15,0)"><tspan dy="0" >Distributed System</tspan></text><text  id="v-195" font-size="17px" xml:space="preserve" y="696" font-weight="normal" fill="#c7c7c7" text-anchor="start" pointer-events="visible" font-family="Open Sans" transform="matrix(1,0,0,1,15,0)"><tspan dy="0" >[Software System]</tspan></text><image  id="v-196" pointer-events="visible"></image></g></g><!--z-index:17--><g   id="j_29"  transform="translate(219,273)" style=""><g  id="v-185" style="opacity: 1;"><rect  id="v-186" rx="1" ry="1" stroke="#ffa500" stroke-width="5" pointer-events="visiblePainted" fill="#dddddd" width="300" height="150" style="fill: rgb(221, 221, 221); stroke: rgb(255, 165, 0);"></rect><text  id="v-187" font-size="34" xml:space="preserve" y="0.8em" font-weight="bold" text-anchor="middle" pointer-events="visible" font-family="Open Sans" fill="#000000" transform="matrix(1,0,0,1,150,46.9)" style="fill: rgb(0, 0, 0);"><tspan dy="0" >1st Peer</tspan></text><text  id="v-188" font-size="17" xml:space="preserve" y="0.8em" text-anchor="middle" font-family="Open Sans" fill="#000000" transform="matrix(1,0,0,1,150,87.7)" style="fill: rgb(0, 0, 0);"><tspan dy="0" >[Container]</tspan></text><text  id="v-189" font-size="24" xml:space="preserve" display="none" y="0.8em" text-anchor="middle" font-family="Open Sans" fill="#000000" transform="matrix(1,0,0,1,150,108.1)" style="fill: rgb(0, 0, 0);"><tspan dy="0" style="fill-opacity: 0; stroke-opacity: 0;" >-</tspan></text><g  id="v-190" color="#000000" transform="matrix(1,0,0,1,147.5,118)" display="none" style="fill: rgb(0, 0, 0);"><g ></g><g ></g><g ></g><g ></g></g><image  id="v-191"></image></g></g><!--z-index:18--><g   id="j_31"  transform="translate(819,723)" style=""><g  id="v-200" style="opacity: 1;"><path  d="M 0,30 a 150,30 0,0,0 300 0 a 150,30 0,0,0 -300 0 l 0,90 a 150,30 0,0,0 300 0 l 0,-90" id="v-201" stroke="#ffa500" stroke-width="5" pointer-events="visiblePainted" fill="#dddddd" style="fill: rgb(221, 221, 221); stroke: rgb(255, 165, 0);"></path><rect  id="v-202" stroke-width="0" pointer-events="visiblePainted" fill="none" stroke="none" width="300" height="120" x="0" y="30"></rect><text  id="v-203" font-size="34" xml:space="preserve" y="0.8em" font-weight="bold" text-anchor="middle" pointer-events="visible" font-family="Open Sans" fill="#000000" transform="matrix(1,0,0,1,150,69.4)" style="fill: rgb(0, 0, 0);"><tspan dy="0" >1st Peer DB</tspan></text><text  id="v-204" font-size="17" xml:space="preserve" y="0.8em" text-anchor="middle" font-family="Open Sans" fill="#000000" transform="matrix(1,0,0,1,150,110.2)" style="fill: rgb(0, 0, 0);"><tspan dy="0" >[Container]</tspan></text><text  id="v-205" font-size="24" xml:space="preserve" display="none" y="0.8em" text-anchor="middle" font-family="Open Sans" fill="#000000" transform="matrix(1,0,0,1,150,130.6)" style="fill: rgb(0, 0, 0);"><tspan dy="0" style="fill-opacity: 0; stroke-opacity: 0;" >-</tspan></text><g  id="v-206" font-weight="normal" text-anchor="middle" color="#000000" transform="matrix(1,0,0,1,147.5,118)" display="none" style="fill: rgb(0, 0, 0);"><g ></g><g ></g><g ></g><g ></g></g><image  id="v-207"></image></g></g><!--z-index:19--><g   id="j_32"  transform="translate(819,273)" style=""><g  id="v-208" style="opacity: 1;"><rect  id="v-209" rx="1" ry="1" stroke="#ffa500" stroke-width="5" pointer-events="visiblePainted" fill="#dddddd" width="300" height="150" style="fill: rgb(221, 221, 221); stroke: rgb(255, 165, 0);"></rect><text  id="v-210" font-size="34" xml:space="preserve" y="0.8em" font-weight="bold" text-anchor="middle" pointer-events="visible" font-family="Open Sans" fill="#000000" transform="matrix(1,0,0,1,150,46.9)" style="fill: rgb(0, 0, 0);"><tspan dy="0" >2nd Peer</tspan></text><text  id="v-211" font-size="17" xml:space="preserve" y="0.8em" text-anchor="middle" font-family="Open Sans" fill="#000000" transform="matrix(1,0,0,1,150,87.7)" style="fill: rgb(0, 0, 0);"><tspan dy="0" >[Container]</tspan></text><text  id="v-212" font-size="24" xml:space="preserve" display="none" y="0.8em" text-anchor="middle" font-family="Open Sans" fill="#000000" transform="matrix(1,0,0,1,150,108.1)" style="fill: rgb(0, 0, 0);"><tspan dy="0" style="fill-opacity: 0; stroke-opacity: 0;" >-</tspan></text><g  id="v-213" color="#000000" transform="matrix(1,0,0,1,147.5,118)" display="none" style="fill: rgb(0, 0, 0);"><g ></g><g ></g><g ></g><g ></g></g><image  id="v-214"></image></g></g><!--z-index:20--><g   id="j_33"  transform="translate(1419,273)" style=""><g  id="v-218" style="opacity: 1;"><path  d="M 0,30 a 150,30 0,0,0 300 0 a 150,30 0,0,0 -300 0 l 0,90 a 150,30 0,0,0 300 0 l 0,-90" id="v-219" stroke="#ffa500" stroke-width="5" pointer-events="visiblePainted" fill="#dddddd" style="fill: rgb(221, 221, 221); stroke: rgb(255, 165, 0);"></path><rect  id="v-220" stroke-width="0" pointer-events="visiblePainted" fill="none" stroke="none" width="300" height="120" x="0" y="30"></rect><text  id="v-221" font-size="34" xml:space="preserve" y="0.8em" font-weight="bold" text-anchor="middle" pointer-events="visible" font-family="Open Sans" fill="#000000" transform="matrix(1,0,0,1,150,69.4)" style="fill: rgb(0, 0, 0);"><tspan dy="0" >2nd Peer DB</tspan></text><text  id="v-222" font-size="17" xml:space="preserve" y="0.8em" text-anchor="middle" font-family="Open Sans" fill="#000000" transform="matrix(1,0,0,1,150,110.2)" style="fill: rgb(0, 0, 0);"><tspan dy="0" >[Container]</tspan></text><text  id="v-223" font-size="24" xml:space="preserve" display="none" y="0.8em" text-anchor="middle" font-family="Open Sans" fill="#000000" transform="matrix(1,0,0,1,150,130.6)" style="fill: rgb(0, 0, 0);"><tspan dy="0" style="fill-opacity: 0; stroke-opacity: 0;" >-</tspan></text><g  id="v-224" font-weight="normal" text-anchor="middle" color="#000000" transform="matrix(1,0,0,1,147.5,118)" display="none" style="fill: rgb(0, 0, 0);"><g ></g><g ></g><g ></g><g ></g></g><image  id="v-225"></image></g></g><!--z-index:21--><g   id="j_34" ><path  stroke="#707070" d="M 519 423 L 660 494 C 666 496.66666666666663 672 496.66666666666663 678 494 L 819 423" id="v-236" stroke-width="2" stroke-dasharray="30 30" fill="none" style="opacity: 1;"></path><path  fill="black" stroke="black" d="M 0 0 0 0" transform="matrix(0.8944271843232765,0.4472136088532364,-0.4472136088532364,0.8944271843232765,519,423)"></path><path  fill="#707070" stroke="#707070" d="M 20 0 L 0 10 L 20 20 z" id="v-238" transform="matrix(-0.8944272140983216,0.44721354930314355,-0.44721354930314355,-0.8944272140983216,823.4721327316709,431.9442740991237)" style="opacity: 1;"></path><path  d="M 519 423 L 660 494 C 666 496.66666666666663 672 496.66666666666663 678 494 L 819 423" id="v-237" fill="none" style="cursor: auto; pointer-events: visiblepainted;"></path><g ><g id="v-230"  label-idx="0" cursor="move" transform="matrix(1,0,0,1,669,496)" style="cursor: default; opacity: 1;"><rect joint-selector="rect" id="v-233" fill="#ffffff" rx="3" ry="3" pointer-events="none" width="0" height="0" transform="matrix(1,0,0,1,0,0)"></rect><text joint-selector="text" id="v-232" font-size="24px" xml:space="preserve" display="none" y="0.8em" fill="#707070" text-anchor="middle" pointer-events="none" font-family="Open Sans" font-weight="normal"><tspan dy="0" style="fill-opacity: 0; stroke-opacity: 0;" >-</tspan></text></g><g id="v-231"  label-idx="1" cursor="move" transform="matrix(1,0,0,1,659,508)" style="cursor: default; opacity: 1;"><rect joint-selector="rect" id="v-235" fill="#ffffff" rx="3" ry="3"  width="0" height="0" transform="matrix(1,0,0,1,0,0)" display="none"></rect><text joint-selector="text" id="v-234" fill="#000000" font-size="14" text-anchor="middle" pointer-events="none"></text></g></g><g  display="none" style="display: none;"><g  transform="translate(669, 498)" id="v-227"><circle  idx="0" r="10"></circle><path  idx="0" d="M16,5.333c-7.732,0-14,4.701-14,10.5c0,1.982,0.741,3.833,2.016,5.414L2,25.667l5.613-1.441c2.339,1.317,5.237,2.107,8.387,2.107c7.732,0,14-4.701,14-10.5C30,10.034,23.732,5.333,16,5.333z" transform="translate(5, -33)"></path><path  idx="0" transform="scale(.8) translate(9.5, -37)" d="M24.778,21.419 19.276,15.917 24.777,10.415 21.949,7.585 16.447,13.087 10.945,7.585 8.117,10.415 13.618,15.917 8.116,21.419 10.946,24.248 16.447,18.746 21.948,24.248z"><title>Remove vertex.</title></path></g></g><g  id="v-240" display="none"><g  id="v-228"><path  end="source" d="M 26 0 L 0 13 L 26 26 z"></path></g><g  id="v-229"><path  end="target" d="M 26 0 L 0 13 L 26 26 z"></path></g></g><g  id="v-239" display="none"><g  id="v-226" transform="translate(554.7262685252707, 440.9898231581151) "><g  event="remove"><circle r="11"></circle><path transform="scale(.8) translate(-16, -16)" d="M24.778,21.419 19.276,15.917 24.777,10.415 21.949,7.585 16.447,13.087 10.945,7.585 8.117,10.415 13.618,15.917 8.116,21.419 10.946,24.248 16.447,18.746 21.948,24.248z"></path><title>Remove link.</title></g><g  event="link:options"><circle r="11" transform="translate(25)"></circle><path fill="white" transform="scale(.55) translate(29, -16)" d="M31.229,17.736c0.064-0.571,0.104-1.148,0.104-1.736s-0.04-1.166-0.104-1.737l-4.377-1.557c-0.218-0.716-0.504-1.401-0.851-2.05l1.993-4.192c-0.725-0.91-1.549-1.734-2.458-2.459l-4.193,1.994c-0.647-0.347-1.334-0.632-2.049-0.849l-1.558-4.378C17.165,0.708,16.588,0.667,16,0.667s-1.166,0.041-1.737,0.105L12.707,5.15c-0.716,0.217-1.401,0.502-2.05,0.849L6.464,4.005C5.554,4.73,4.73,5.554,4.005,6.464l1.994,4.192c-0.347,0.648-0.632,1.334-0.849,2.05l-4.378,1.557C0.708,14.834,0.667,15.412,0.667,16s0.041,1.165,0.105,1.736l4.378,1.558c0.217,0.715,0.502,1.401,0.849,2.049l-1.994,4.193c0.725,0.909,1.549,1.733,2.459,2.458l4.192-1.993c0.648,0.347,1.334,0.633,2.05,0.851l1.557,4.377c0.571,0.064,1.148,0.104,1.737,0.104c0.588,0,1.165-0.04,1.736-0.104l1.558-4.377c0.715-0.218,1.399-0.504,2.049-0.851l4.193,1.993c0.909-0.725,1.733-1.549,2.458-2.458l-1.993-4.193c0.347-0.647,0.633-1.334,0.851-2.049L31.229,17.736zM16,20.871c-2.69,0-4.872-2.182-4.872-4.871c0-2.69,2.182-4.872,4.872-4.872c2.689,0,4.871,2.182,4.871,4.872C20.871,18.689,18.689,20.871,16,20.871z"></path><title>Link options.</title></g></g></g></g><!--z-index:22--><g   id="j_35" ><path  stroke="#707070" d="M 819 273 L 678 202 C 672 199.33333333333331 666 199.33333333333331 660 202 L 519 273" id="v-251" stroke-width="2" stroke-dasharray="30 30" fill="none" style="opacity: 1;"></path><path  fill="black" stroke="black" d="M 0 0 0 0" transform="matrix(-0.8944272140983217,-0.44721354930314333,0.44721354930314333,-0.8944272140983217,819,273)"></path><path  fill="#707070" stroke="#707070" d="M 20 0 L 0 10 L 20 20 z" id="v-253" transform="matrix(0.8944270949981176,-0.447213787503503,0.447213787503503,0.8944270949981176,514.5278660773275,264.05572947388197)" style="opacity: 1;"></path><path  d="M 819 273 L 678 202 C 672 199.33333333333331 666 199.33333333333331 660 202 L 519 273" id="v-252" fill="none" style="cursor: auto; pointer-events: visiblepainted;"></path><g ><g id="v-245"  label-idx="0" cursor="move" transform="matrix(1,0,0,1,669,200)" style="cursor: default; opacity: 1;"><rect joint-selector="rect" id="v-248" fill="#ffffff" rx="3" ry="3" pointer-events="none" width="0" height="0" transform="matrix(1,0,0,1,0,0)"></rect><text joint-selector="text" id="v-247" font-size="24px" xml:space="preserve" display="none" y="0.8em" fill="#707070" text-anchor="middle" pointer-events="none" font-family="Open Sans" font-weight="normal"><tspan dy="0" style="fill-opacity: 0; stroke-opacity: 0;" >-</tspan></text></g><g id="v-246"  label-idx="1" cursor="move" transform="matrix(1,0,0,1,659,212)" style="cursor: default; opacity: 1;"><rect joint-selector="rect" id="v-250" fill="#ffffff" rx="3" ry="3"  width="0" height="0" transform="matrix(1,0,0,1,0,0)" display="none"></rect><text joint-selector="text" id="v-249" fill="#000000" font-size="14" text-anchor="middle" pointer-events="none"></text></g></g><g  display="none" style="display: none;"><g  transform="translate(669, 198)" id="v-242"><circle  idx="0" r="10"></circle><path  idx="0" d="M16,5.333c-7.732,0-14,4.701-14,10.5c0,1.982,0.741,3.833,2.016,5.414L2,25.667l5.613-1.441c2.339,1.317,5.237,2.107,8.387,2.107c7.732,0,14-4.701,14-10.5C30,10.034,23.732,5.333,16,5.333z" transform="translate(5, -33)"></path><path  idx="0" transform="scale(.8) translate(9.5, -37)" d="M24.778,21.419 19.276,15.917 24.777,10.415 21.949,7.585 16.447,13.087 10.945,7.585 8.117,10.415 13.618,15.917 8.116,21.419 10.946,24.248 16.447,18.746 21.948,24.248z"><title>Remove vertex.</title></path></g></g><g  id="v-255" display="none"><g  id="v-243"><path  end="source" d="M 26 0 L 0 13 L 26 26 z"></path></g><g  id="v-244"><path  end="target" d="M 26 0 L 0 13 L 26 26 z"></path></g></g><g  id="v-254" display="none"><g  id="v-241" transform="translate(783.2737314747293, 255.01017684188497) "><g  event="remove"><circle r="11"></circle><path transform="scale(.8) translate(-16, -16)" d="M24.778,21.419 19.276,15.917 24.777,10.415 21.949,7.585 16.447,13.087 10.945,7.585 8.117,10.415 13.618,15.917 8.116,21.419 10.946,24.248 16.447,18.746 21.948,24.248z"></path><title>Remove link.</title></g><g  event="link:options"><circle r="11" transform="translate(25)"></circle><path fill="white" transform="scale(.55) translate(29, -16)" d="M31.229,17.736c0.064-0.571,0.104-1.148,0.104-1.736s-0.04-1.166-0.104-1.737l-4.377-1.557c-0.218-0.716-0.504-1.401-0.851-2.05l1.993-4.192c-0.725-0.91-1.549-1.734-2.458-2.459l-4.193,1.994c-0.647-0.347-1.334-0.632-2.049-0.849l-1.558-4.378C17.165,0.708,16.588,0.667,16,0.667s-1.166,0.041-1.737,0.105L12.707,5.15c-0.716,0.217-1.401,0.502-2.05,0.849L6.464,4.005C5.554,4.73,4.73,5.554,4.005,6.464l1.994,4.192c-0.347,0.648-0.632,1.334-0.849,2.05l-4.378,1.557C0.708,14.834,0.667,15.412,0.667,16s0.041,1.165,0.105,1.736l4.378,1.558c0.217,0.715,0.502,1.401,0.849,2.049l-1.994,4.193c0.725,0.909,1.549,1.733,2.459,2.458l4.192-1.993c0.648,0.347,1.334,0.633,2.05,0.851l1.557,4.377c0.571,0.064,1.148,0.104,1.737,0.104c0.588,0,1.165-0.04,1.736-0.104l1.558-4.377c0.715-0.218,1.399-0.504,2.049-0.851l4.193,1.993c0.909-0.725,1.733-1.549,2.458-2.458l-1.993-4.193c0.347-0.647,0.633-1.334,0.851-2.049L31.229,17.736zM16,20.871c-2.69,0-4.872-2.182-4.872-4.871c0-2.69,2.182-4.872,4.872-4.872c2.689,0,4.871,2.182,4.871,4.872C20.871,18.689,18.689,20.871,16,20.871z"></path><title>Link options.</title></g></g></g></g><!--z-index:23--><g   id="j_36" ><path  stroke="#707070" d="M 469 423 L 869 723" id="v-265" stroke-width="2" stroke-dasharray="30 30" fill="none" style="opacity: 1;"></path><path  fill="black" stroke="black" d="M 0 0 0 0" transform="matrix(0.8000000179153027,0.5999999761129289,-0.5999999761129289,0.8000000179153027,469,423)"></path><path  fill="#707070" stroke="#707070" d="M 20 0 L 0 10 L 20 20 z" id="v-267" transform="matrix(-0.7999999380204661,-0.6000000826393697,0.6000000826393697,-0.7999999380204661,862.999998553811,731.0000002065983)" style="opacity: 1;"></path><path  d="M 469 423 L 869 723" id="v-266" fill="none" style="cursor: auto; pointer-events: visiblepainted;"></path><g ><g id="v-259"  label-idx="0" cursor="move" transform="matrix(1,0,0,1,669,573)" style="cursor: default; opacity: 1;"><rect joint-selector="rect" id="v-262" fill="#ffffff" rx="3" ry="3" pointer-events="none" width="0" height="0" transform="matrix(1,0,0,1,0,0)"></rect><text joint-selector="text" id="v-261" font-size="24px" xml:space="preserve" display="none" y="0.8em" fill="#707070" text-anchor="middle" pointer-events="none" font-family="Open Sans" font-weight="normal"><tspan dy="0" style="fill-opacity: 0; stroke-opacity: 0;" >-</tspan></text></g><g id="v-260"  label-idx="1" cursor="move" transform="matrix(1,0,0,1,659,585)" style="cursor: default; opacity: 1;"><rect joint-selector="rect" id="v-264" fill="#ffffff" rx="3" ry="3"  width="0" height="0" transform="matrix(1,0,0,1,0,0)" display="none"></rect><text joint-selector="text" id="v-263" fill="#000000" font-size="14" text-anchor="middle" pointer-events="none"></text></g></g><g  display="none" style="display: none;"></g><g  id="v-269" display="none"><g  id="v-257"><path  end="source" d="M 26 0 L 0 13 L 26 26 z"></path></g><g  id="v-258"><path  end="target" d="M 26 0 L 0 13 L 26 26 z"></path></g></g><g  id="v-268" display="none"><g  id="v-256" transform="translate(501, 447) "><g  event="remove"><circle r="11"></circle><path transform="scale(.8) translate(-16, -16)" d="M24.778,21.419 19.276,15.917 24.777,10.415 21.949,7.585 16.447,13.087 10.945,7.585 8.117,10.415 13.618,15.917 8.116,21.419 10.946,24.248 16.447,18.746 21.948,24.248z"></path><title>Remove link.</title></g><g  event="link:options"><circle r="11" transform="translate(25)"></circle><path fill="white" transform="scale(.55) translate(29, -16)" d="M31.229,17.736c0.064-0.571,0.104-1.148,0.104-1.736s-0.04-1.166-0.104-1.737l-4.377-1.557c-0.218-0.716-0.504-1.401-0.851-2.05l1.993-4.192c-0.725-0.91-1.549-1.734-2.458-2.459l-4.193,1.994c-0.647-0.347-1.334-0.632-2.049-0.849l-1.558-4.378C17.165,0.708,16.588,0.667,16,0.667s-1.166,0.041-1.737,0.105L12.707,5.15c-0.716,0.217-1.401,0.502-2.05,0.849L6.464,4.005C5.554,4.73,4.73,5.554,4.005,6.464l1.994,4.192c-0.347,0.648-0.632,1.334-0.849,2.05l-4.378,1.557C0.708,14.834,0.667,15.412,0.667,16s0.041,1.165,0.105,1.736l4.378,1.558c0.217,0.715,0.502,1.401,0.849,2.049l-1.994,4.193c0.725,0.909,1.549,1.733,2.459,2.458l4.192-1.993c0.648,0.347,1.334,0.633,2.05,0.851l1.557,4.377c0.571,0.064,1.148,0.104,1.737,0.104c0.588,0,1.165-0.04,1.736-0.104l1.558-4.377c0.715-0.218,1.399-0.504,2.049-0.851l4.193,1.993c0.909-0.725,1.733-1.549,2.458-2.458l-1.993-4.193c0.347-0.647,0.633-1.334,0.851-2.049L31.229,17.736zM16,20.871c-2.69,0-4.872-2.182-4.872-4.871c0-2.69,2.182-4.872,4.872-4.872c2.689,0,4.871,2.182,4.871,4.872C20.871,18.689,18.689,20.871,16,20.871z"></path><title>Link options.</title></g></g></g></g><!--z-index:24--><g   id="j_37" ><path  stroke="#707070" d="M 1119 348 L 1419 348" id="v-279" stroke-width="2" stroke-dasharray="30 30" fill="none" style="opacity: 1;"></path><path  fill="black" stroke="black" d="M 0 0 0 0" transform="matrix(1,0,0,1,1119,348)"></path><path  fill="#707070" stroke="#707070" d="M 20 0 L 0 10 L 20 20 z" id="v-281" transform="matrix(-1,1.2246467991473532e-16,-1.2246467991473532e-16,-1,1419,358)" style="opacity: 1;"></path><path  d="M 1119 348 L 1419 348" id="v-280" fill="none" style="cursor: auto; pointer-events: visiblepainted;"></path><g ><g id="v-273"  label-idx="0" cursor="move" transform="matrix(1,0,0,1,1269,348)" style="cursor: default; opacity: 1;"><rect joint-selector="rect" id="v-276" fill="#ffffff" rx="3" ry="3" pointer-events="none" width="0" height="0" transform="matrix(1,0,0,1,0,0)"></rect><text joint-selector="text" id="v-275" font-size="24px" xml:space="preserve" display="none" y="0.8em" fill="#707070" text-anchor="middle" pointer-events="none" font-family="Open Sans" font-weight="normal"><tspan dy="0" style="fill-opacity: 0; stroke-opacity: 0;" >-</tspan></text></g><g id="v-274"  label-idx="1" cursor="move" transform="matrix(1,0,0,1,1259,360)" style="cursor: default; opacity: 1;"><rect joint-selector="rect" id="v-278" fill="#ffffff" rx="3" ry="3"  width="0" height="0" transform="matrix(1,0,0,1,0,0)" display="none"></rect><text joint-selector="text" id="v-277" fill="#000000" font-size="14" text-anchor="middle" pointer-events="none"></text></g></g><g  display="none" style="display: none;"></g><g  id="v-283" display="none"><g  id="v-271"><path  end="source" d="M 26 0 L 0 13 L 26 26 z"></path></g><g  id="v-272"><path  end="target" d="M 26 0 L 0 13 L 26 26 z"></path></g></g><g  id="v-282" display="none"><g  id="v-270" transform="translate(1159, 348) "><g  event="remove"><circle r="11"></circle><path transform="scale(.8) translate(-16, -16)" d="M24.778,21.419 19.276,15.917 24.777,10.415 21.949,7.585 16.447,13.087 10.945,7.585 8.117,10.415 13.618,15.917 8.116,21.419 10.946,24.248 16.447,18.746 21.948,24.248z"></path><title>Remove link.</title></g><g  event="link:options"><circle r="11" transform="translate(25)"></circle><path fill="white" transform="scale(.55) translate(29, -16)" d="M31.229,17.736c0.064-0.571,0.104-1.148,0.104-1.736s-0.04-1.166-0.104-1.737l-4.377-1.557c-0.218-0.716-0.504-1.401-0.851-2.05l1.993-4.192c-0.725-0.91-1.549-1.734-2.458-2.459l-4.193,1.994c-0.647-0.347-1.334-0.632-2.049-0.849l-1.558-4.378C17.165,0.708,16.588,0.667,16,0.667s-1.166,0.041-1.737,0.105L12.707,5.15c-0.716,0.217-1.401,0.502-2.05,0.849L6.464,4.005C5.554,4.73,4.73,5.554,4.005,6.464l1.994,4.192c-0.347,0.648-0.632,1.334-0.849,2.05l-4.378,1.557C0.708,14.834,0.667,15.412,0.667,16s0.041,1.165,0.105,1.736l4.378,1.558c0.217,0.715,0.502,1.401,0.849,2.049l-1.994,4.193c0.725,0.909,1.549,1.733,2.459,2.458l4.192-1.993c0.648,0.347,1.334,0.633,2.05,0.851l1.557,4.377c0.571,0.064,1.148,0.104,1.737,0.104c0.588,0,1.165-0.04,1.736-0.104l1.558-4.377c0.715-0.218,1.399-0.504,2.049-0.851l4.193,1.993c0.909-0.725,1.733-1.549,2.458-2.458l-1.993-4.193c0.347-0.647,0.633-1.334,0.851-2.049L31.229,17.736zM16,20.871c-2.69,0-4.872-2.182-4.872-4.871c0-2.69,2.182-4.872,4.872-4.872c2.689,0,4.871,2.182,4.871,4.872C20.871,18.689,18.689,20.871,16,20.871z"></path><title>Link options.</title></g></g></g></g><!--z-index:25--></g><g ></g><g ></g><g ></g></g></svg>